<?xml version="1.0" encoding="UTF-8"?><svg id="c" xmlns="http://www.w3.org/2000/svg" xmlns:xlink="http://www.w3.org/1999/xlink" viewBox="0 0 2661.33 450.39"><defs><style>.m{font-family:UrbanistRoman-SemiBold, Urbanist;font-variation-settings:'wght' 600;font-weight:600;}.m,.n{font-size:351.83px;}.m,.o{fill:#ccc;}.n{font-family:UrbanistRoman-ExtraLight, Urbanist;font-variation-settings:'wght' 200;font-weight:200;letter-spacing:-.03em;}.n,.p{fill:#b3b3b3;}.q{letter-spacing:-.07em;}.r{filter:url(#d);}.o,.s,.p,.t{fill-rule:evenodd;}.s{stroke:#662d91;stroke-width:4px;}.s,.p,.t{stroke-miterlimit:10;}.u{filter:url(#j);}.v{letter-spacing:-.06em;}.w{letter-spacing:-.05em;}.p{stroke-width:2px;}.p,.t{stroke:#333;}.t{fill:#e6e6e6;}.x{filter:url(#g);}</style><filter id="d" x="295" y="12.39" width="379" height="403" filterUnits="userSpaceOnUse"><feOffset dx="5" dy="5"/><feGaussianBlur result="e" stdDeviation="5"/><feFlood flood-color="#000" flood-opacity=".5"/><feComposite in2="e" operator="in"/><feComposite in="SourceGraphic"/></filter><filter id="g" x="10" y="14.39" width="400" height="400" filterUnits="userSpaceOnUse"><feOffset dx="5" dy="5"/><feGaussianBlur result="h" stdDeviation="5"/><feFlood flood-color="#000" flood-opacity=".5"/><feComposite in2="h" operator="in"/><feComposite in="SourceGraphic"/></filter><filter id="j" x="1632" y="82.39" width="272" height="287" filterUnits="userSpaceOnUse"><feOffset dx="5" dy="5"/><feGaussianBlur result="k" stdDeviation="5"/><feFlood flood-color="#000" flood-opacity=".25"/><feComposite in2="k" operator="in"/><feComposite in="SourceGraphic"/></filter></defs><g id="f" class="r"><path class="t" d="M469.17,394.25c197.59-3.35,255.49-266.78,77.64-352.72-49.54-28.33-184.42-13.7-239.49-17.09,9.12,5.13,25.92,16.67,33.92,23.35,7.95,6.77,22.19,21.4,28.74,29.48,34.76,1.97,116-5.88,147.81,9.27,46.49,18.18,80.28,64.68,83.19,114.51,3.89,55.61-31.21,110.94-83.2,131.09-31.43,15.17-113.6,7.54-147.81,9.28-16.27,20.21-39.98,40.2-62.66,52.83,24.99.82,134.6-.59,161.85,0Z"/></g><g id="i" class="x"><path class="o" d="M215.03,393.98c137.83-7.05,219.96-161.93,148.43-279.97C287.87-12.09,98.69-1.84,37.2,131.7c-58.34,125.07,40.05,270.18,177.83,262.27M213.31,341.16c-94.76,6.98-167.03-92.47-131.09-180.44,40.36-102.83,185.62-111.97,238.54-15,46.66,82.77-12.55,190.5-107.45,195.44Z"/></g><g id="l" class="u"><path class="p" d="M1756.88,347.38c167.65-6.51,167.55-246.99,0-253.45,0,0-110.92,0-110.92,0,6.24,3.52,17.76,11.43,23.24,16,5.45,4.64,15.21,14.67,19.7,20.21,17.1.98,74.85-2.23,90.49,2.84,78.37,19.49,92.14,128.64,21.09,167-25.8,16.92-82.39,9.82-111.59,11.2-11.15,13.85-27.4,27.56-42.94,36.21,17.13.56,92.25-.4,110.92,0Z"/></g><text class="m" transform="translate(804.87 342.25)"><tspan class="v" x="0" y="0">O</tspan><tspan class="q" x="251.38" y="0">B</tspan><tspan class="w" x="428" y="0">JX</tspan></text><text class="n" transform="translate(1900.42 342.38)"><tspan x="0" y="0">esign</tspan></text><path class="s" d="M742.78,25.21v369.08"/></svg>