<?xml version="1.0" encoding="UTF-8"?><svg id="c" xmlns="http://www.w3.org/2000/svg" xmlns:xlink="http://www.w3.org/1999/xlink" viewBox="0 0 1860 382"><defs><style>.g{fill:#ccc;font-family:UrbanistRoman-SemiBold, Urbanist;font-variation-settings:'wght' 600;font-weight:600;}.g,.h{font-size:351.83px;}.h{font-family:UrbanistRoman-ExtraLight, Urbanist;font-variation-settings:'wght' 200;font-weight:200;letter-spacing:-.03em;}.h,.i{fill:#b3b3b3;}.j{letter-spacing:-.07em;}.k{filter:url(#d);}.l{letter-spacing:-.06em;}.m{letter-spacing:-.05em;}.i{fill-rule:evenodd;stroke:#333;stroke-miterlimit:10;stroke-width:2px;}</style><filter id="d" x="827.33" y="13.33" width="273" height="287" filterUnits="userSpaceOnUse"><feOffset dx="5" dy="5"/><feGaussianBlur result="e" stdDeviation="5"/><feFlood flood-color="#000" flood-opacity=".25"/><feComposite in2="e" operator="in"/><feComposite in="SourceGraphic"/></filter></defs><g id="f" class="k"><path class="i" d="M952.98,278.64c167.65-6.51,167.55-246.99,0-253.45,0,0-110.92,0-110.92,0,6.24,3.52,17.76,11.43,23.24,16,5.45,4.64,15.21,14.67,19.7,20.21,17.1.98,74.85-2.23,90.49,2.84,78.37,19.49,92.14,128.64,21.09,167-25.8,16.92-82.39,9.82-111.59,11.2-11.15,13.85-27.4,27.56-42.94,36.21,17.13.56,92.25-.4,110.92,0Z"/></g><text class="g" transform="translate(.98 273.5)"><tspan class="l" x="0" y="0">O</tspan><tspan class="j" x="251.38" y="0">B</tspan><tspan class="m" x="428" y="0">JX</tspan></text><text class="h" transform="translate(1096.52 273.64)"><tspan x="0" y="0">esign</tspan></text></svg>