<?xml version="1.0" encoding="UTF-8"?><svg id="c" xmlns="http://www.w3.org/2000/svg" xmlns:xlink="http://www.w3.org/1999/xlink" viewBox="0 0 669.33 417.33"><defs><style>.j{filter:url(#d);}.k{fill:#ccc;}.k,.l{fill-rule:evenodd;}.l{fill:#e6e6e6;stroke:#333;stroke-miterlimit:10;}.m{filter:url(#g);}</style><filter id="d" x="295" y="6" width="379" height="403" filterUnits="userSpaceOnUse"><feOffset dx="5" dy="5"/><feGaussianBlur result="e" stdDeviation="5"/><feFlood flood-color="#000" flood-opacity=".5"/><feComposite in2="e" operator="in"/><feComposite in="SourceGraphic"/></filter><filter id="g" x="10" y="8" width="400" height="400" filterUnits="userSpaceOnUse"><feOffset dx="5" dy="5"/><feGaussianBlur result="h" stdDeviation="5"/><feFlood flood-color="#000" flood-opacity=".5"/><feComposite in2="h" operator="in"/><feComposite in="SourceGraphic"/></filter></defs><g id="f" class="j"><path class="l" d="M469.17,387.86c197.59-3.35,255.49-266.78,77.64-352.72-49.54-28.33-184.42-13.7-239.49-17.09,9.12,5.13,25.92,16.67,33.92,23.35,7.95,6.77,22.19,21.4,28.74,29.48,34.76,1.97,116-5.88,147.81,9.27,46.49,18.18,80.28,64.68,83.19,114.51,3.89,55.61-31.21,110.94-83.2,131.09-31.43,15.17-113.6,7.54-147.81,9.28-16.27,20.21-39.98,40.2-62.66,52.83,24.99.82,134.6-.59,161.85,0Z"/></g><g id="i" class="m"><path class="k" d="M215.03,387.59c137.83-7.05,219.96-161.93,148.43-279.97C287.87-18.48,98.69-8.23,37.2,125.31c-58.34,125.07,40.05,270.18,177.83,262.27M213.31,334.77c-94.76,6.98-167.03-92.47-131.09-180.44,40.36-102.83,185.62-111.97,238.54-15,46.66,82.77-12.55,190.5-107.45,195.44Z"/></g></svg>